<svg xmlns="http://www.w3.org/2000/svg" xmlns:xlink="http://www.w3.org/1999/xlink" width="282" height="47" viewBox="0 0 282 47">
  <defs>
    <linearGradient id="linear-gradient" x1="0.5" x2="0.5" y2="1" gradientUnits="objectBoundingBox">
      <stop offset="0" stop-color="#fff"/>
      <stop offset="1" stop-color="#fff"/>
    </linearGradient>
    <linearGradient id="linear-gradient-14" x1="0.5" x2="0.5" y2="1" gradientUnits="objectBoundingBox">
      <stop offset="0" stop-color="#fff"/>
      <stop offset="1" stop-color="#fff"/>
    </linearGradient>
    <clipPath id="clip-ApzBank">
      <rect width="282" height="47"/> 
    </clipPath>
  </defs>
  <g id="ApzBank" clip-path="url(#clip-ApzBank)">
    <g id="Logo" transform="translate(50.04 7.858)">
      <g id="Group_1" data-name="Group 1" transform="translate(0 0)"> 
        <path id="Path_1" data-name="Path 1" d="M219.421,56.658h-3.829l-2.939-7.792H201.967l-2.805,7.748H195.6L205.4,31.1h3.651Zm-7.747-10.464-4.5-11.844L202.9,46.194Z" transform="translate(-195.6 -31.1)" fill="#fff"/>
        <path id="Path_2" data-name="Path 2" d="M257.695,48.727a6.962,6.962,0,0,1,10.864-.045,10.925,10.925,0,0,1,2,6.946,10.787,10.787,0,0,1-2.226,7.169,7.481,7.481,0,0,1-10.642.757v8.5H254.4V46.5h3.295Zm0,11.844a6.44,6.44,0,0,0,4.853,2.226,3.947,3.947,0,0,0,3.384-1.826,9.516,9.516,0,0,0,1.247-5.432,9.127,9.127,0,0,0-1.2-5.165,3.8,3.8,0,0,0-3.295-1.781c-1.826,0-3.473,1.069-4.987,3.161Z" transform="translate(-228.219 -39.421)" fill="#fff"/>
        <path id="Path_3" data-name="Path 3" d="M302.195,48.727a6.962,6.962,0,0,1,10.864-.045,10.925,10.925,0,0,1,2,6.946,10.787,10.787,0,0,1-2.226,7.169,7.481,7.481,0,0,1-10.642.757v8.5H298.9V46.5h3.295Zm0,11.844a6.44,6.44,0,0,0,4.853,2.226,3.947,3.947,0,0,0,3.384-1.826,9.516,9.516,0,0,0,1.247-5.432,9.127,9.127,0,0,0-1.2-5.165,3.8,3.8,0,0,0-3.295-1.781c-1.826,0-3.473,1.069-4.987,3.161v8.816Z" transform="translate(-252.905 -39.421)" fill="#fff"/>
        <path id="Path_4" data-name="Path 4" d="M355.941,65.478H339.6V62.718L351.088,49.85h-10.82V47h15.094v2.761L343.875,62.629h12.066Z" transform="translate(-275.483 -39.92)" fill="#fff"/>
        <path id="Path_5" data-name="Path 5" d="M386.695,34.762H383.4V31.2h3.295Zm0,21.951H383.4V38.235h3.295Z" transform="translate(-299.78 -31.155)" fill="#fff"/>
        <path id="Path_6" data-name="Path 6" d="M404.995,56.713H401.7V31.2h3.295Z" transform="translate(-309.932 -31.155)" fill="#fff"/>
        <path id="Path_7" data-name="Path 7" d="M423.195,56.713H419.9V31.2h3.295Z" transform="translate(-320.028 -31.155)" fill="#fff"/>
        <path id="Path_8" data-name="Path 8" d="M444.238,46.1a8.285,8.285,0,0,1,6.323,2.538,10.109,10.109,0,0,1,2.36,7.124,10.11,10.11,0,0,1-2.36,7.124,9.089,9.089,0,0,1-12.6,0,10.11,10.11,0,0,1-2.36-7.124,10.109,10.109,0,0,1,2.36-7.124A8.121,8.121,0,0,1,444.238,46.1Zm0,16.7a4.706,4.706,0,0,0,3.829-1.781,8.173,8.173,0,0,0,1.469-5.3,8.091,8.091,0,0,0-1.469-5.3,5.007,5.007,0,0,0-7.658,0,8.173,8.173,0,0,0-1.469,5.3,8.173,8.173,0,0,0,1.469,5.3A4.647,4.647,0,0,0,444.238,62.8Z" transform="translate(-328.738 -39.421)" fill="#fff"/>
        <path id="Path_9" data-name="Path 9" d="M485.895,48.861a7.329,7.329,0,0,1,5.521-2.761c4.141,0,6.234,2.271,6.234,6.812V64.979h-3.295V53.046a5.2,5.2,0,0,0-.8-3.25,3.22,3.22,0,0,0-2.672-.98c-1.692,0-3.339.98-4.987,2.939V64.979H482.6V46.5h3.295Z" transform="translate(-354.811 -39.421)" fill="#fff"/>
      </g>
      <g id="Group_2" data-name="Group 2" transform="translate(151.21 2.404)">
        <path id="Path_10" data-name="Path 10" d="M422.859,131.285a6.115,6.115,0,0,1-2.246,5.117c-1.5,1.186-3.681,1.747-6.552,1.747H405.2V114.5h8.424a9.83,9.83,0,0,1,5.928,1.622,5.5,5.5,0,0,1-1.248,9.484,5.824,5.824,0,0,1,3.432,2.122A6.024,6.024,0,0,1,422.859,131.285Zm-14.539-6.864h5.241a6.768,6.768,0,0,0,3.806-.811,3.143,3.143,0,0,0,1.248-2.746,2.946,2.946,0,0,0-1.186-2.621,7.575,7.575,0,0,0-4.181-.874h-4.992v7.051Zm0,10.92H414c3.744,0,5.616-1.373,5.616-4.056a3.671,3.671,0,0,0-1.31-3.12c-.874-.624-2.434-1-4.742-1h-5.3v8.174Z" transform="translate(-405.2 -114.5)" fill="#fff"/>
        <path id="Path_11" data-name="Path 11" d="M450.193,140.124a8.522,8.522,0,0,1-5.99,2.184,6.143,6.143,0,0,1-4.181-1.373,4.375,4.375,0,0,1-1.622-3.557c0-3.993,3.432-5.99,10.358-5.99h1.5a13.537,13.537,0,0,0-.187-2.683,2.262,2.262,0,0,0-1.061-1.373,5.412,5.412,0,0,0-2.808-.562c-2.683,0-4.118,1-4.181,2.933h-3.057c.25-3.494,2.683-5.3,7.425-5.3a8.613,8.613,0,0,1,5.117,1.31c1.186.874,1.81,2.558,1.81,5.117v11.107h-3.058v-1.81Zm0-2.746v-3.806h-2.059c-4.43,0-6.614,1.186-6.614,3.619a2.2,2.2,0,0,0,1,2,4.092,4.092,0,0,0,2.621.686,6.962,6.962,0,0,0,2.933-.686A5.009,5.009,0,0,0,450.193,137.379Z" transform="translate(-417.684 -118.223)" fill="#fff"/>
        <path id="Path_12" data-name="Path 12" d="M472.357,126.958a6.811,6.811,0,0,1,5.117-2.558c3.869,0,5.8,2.122,5.8,6.3v11.232H480.22V130.827a4.677,4.677,0,0,0-.749-3,2.934,2.934,0,0,0-2.434-.936c-1.56,0-3.12.936-4.68,2.745v12.292H469.3V124.774h3.057Z" transform="translate(-429.303 -118.223)" fill="#fff"/>
        <path id="Path_13" data-name="Path 13" d="M512.964,138.249h-3.619l-5.553-8.673-1.934,1.872v6.8H498.8V114.6h3.057v13.353l6.614-6.864h3.869l-6.552,6.365Z" transform="translate(-440.396 -114.538)" fill="#fff"/>
      </g>
    </g>
    <g id="Group_3893" transform="translate(7.453 4.5)">
      <g id="Group_42" transform="translate(0 0.019)">
        <path id="Path_8042" d="M-426.71-118.821h0a2.742,2.742,0,0,1-1.2-3.691l14.144-27.9a3.827,3.827,0,0,1,3.522-2.1,3.93,3.93,0,0,1,3.372,2.192l8.974,17.835a3.819,3.819,0,0,1-.15,3.747,3.983,3.983,0,0,1-3.391,1.855h-8.992a2.758,2.758,0,0,1-2.754-2.754h0a2.758,2.758,0,0,1,2.754-2.754h6.388l-6.314-12.608L-423.038-120A2.741,2.741,0,0,1-426.71-118.821Z" transform="translate(428.21 152.507)" fill="#fff"/>
      </g>
      <g id="Group_43" transform="translate(10.66 28.51)">
        <path id="Path_8043" d="M-407.062-147.012h-18.566a2.743,2.743,0,0,1-2.773-2.717,2.743,2.743,0,0,1,2.717-2.773h18.6a2.742,2.742,0,0,1,2.773,2.716,2.743,2.743,0,0,1-2.716,2.773Z" transform="translate(428.401 152.501)" fill="#fff"/>
      </g>
      <path id="Path_8044" d="M-346.515-128.831a3.865,3.865,0,0,0,.15-3.747l-8.974-17.835a3.931,3.931,0,0,0-3.372-2.192,3.861,3.861,0,0,0-3.522,2.1l-2.567,5.077h0c4.065-4.009,6.014.318,6.014.318l6.314,12.608h-6.388a2.743,2.743,0,0,0-2.773,2.717,2.743,2.743,0,0,0,2.716,2.773h9.03A3.857,3.857,0,0,0-346.515-128.831Z" transform="translate(376.915 152.607)" fill="#fff"/>
      <path id="Path_8045" d="M-338.6-45.2h-6.388a2.743,2.743,0,0,0-2.716,2.773,2.731,2.731,0,0,0,2.716,2.716h3.9C-335.673-40.423-338.6-45.2-338.6-45.2Z" transform="translate(363.02 65.322)" fill="#fff"/>
      <path id="Path_8046" d="M-336.525,2.254A2.758,2.758,0,0,0-339.279-.5h-18.566s-.787,5.489,11.428,5.489h7.138a2.731,2.731,0,0,0,2.754-2.735Z" transform="translate(371.271 28.996)" fill="#fff"/>
    </g>
  </g>
</svg>
